<svg width="30" height="16" viewBox="0 0 30 16" fill="none" xmlns="http://www.w3.org/2000/svg">
<path d="M21.3333 0H8C3.58667 0 0 3.58667 0 8C0 12.4133 3.58667 16 8 16H21.3333C25.7467 16 29.3333 12.4133 29.3333 8C29.3333 3.58667 25.7467 0 21.3333 0ZM21.3333 13.3333H8C5.05333 13.3333 2.66667 10.9467 2.66667 8C2.66667 5.05333 5.05333 2.66667 8 2.66667H21.3333C24.28 2.66667 26.6667 5.05333 26.6667 8C26.6667 10.9467 24.28 13.3333 21.3333 13.3333ZM8 4C5.78667 4 4 5.78667 4 8C4 10.2133 5.78667 12 8 12C10.2133 12 12 10.2133 12 8C12 5.78667 10.2133 4 8 4Z" fill="white"/>
</svg>
