<svg width="10" height="15" viewBox="0 0 10 15" fill="none" xmlns="http://www.w3.org/2000/svg">
<path fill-rule="evenodd" clip-rule="evenodd" d="M1.42854 1.42854V12.8568H8.57121V1.42854H1.42854ZM0.714267 0H9.28548C9.67996 0 9.99975 0.319789 9.99975 0.714268V13.5711C9.99975 13.9656 9.67996 14.2854 9.28548 14.2854H0.714267C0.319788 14.2854 0 13.9656 0 13.5711V0.714268C0 0.319789 0.319788 -2.42492e-07 0.714267 0ZM4.99987 10.714C5.39435 10.714 5.71414 11.0338 5.71414 11.4283C5.71414 11.8228 5.39435 12.1426 4.99987 12.1426C4.6054 12.1426 4.28561 11.8228 4.28561 11.4283C4.28561 11.0338 4.6054 10.714 4.99987 10.714Z" fill="#FEFEFE"/>
</svg>
