
<svg width="310" height="217" viewBox="0 0 310 217" fill="none" xmlns="http://www.w3.org/2000/svg">
<g filter="url(#filter0_ddd_0_351)">
<rect x="15" y="14" width="280" height="178" rx="16" fill="black"/>
</g>
<path d="M250.682 165.77L247.831 174.273C247.831 174.273 247.107 170.676 247.035 170.224C245.412 166.521 243.017 166.727 243.017 166.727L245.84 177.713V177.711H249.272L254.018 165.77H250.682Z" fill="white"/>
<path d="M253.401 177.713H256.519L258.403 165.77H255.247L253.401 177.713Z" fill="white"/>
<path d="M275.463 165.77H272.183L267.069 177.713H270.166L270.804 176.007H274.709L275.041 177.713H277.878L275.463 165.77ZM271.669 173.726L273.366 169.212L274.254 173.726H271.669Z" fill="white"/>
<path d="M262.827 169.251C262.827 168.593 263.367 168.103 264.918 168.103C265.925 168.103 267.08 168.835 267.08 168.835L267.586 166.328C267.586 166.328 266.111 165.769 264.664 165.769C261.386 165.769 259.695 167.336 259.695 169.321C259.695 172.911 264.016 172.419 264.016 174.262C264.016 174.578 263.765 175.309 261.966 175.309C260.161 175.309 258.97 174.648 258.97 174.648L258.433 177.054C258.433 177.054 259.587 177.712 261.817 177.712C264.053 177.712 267.153 176.04 267.153 173.638C267.153 170.749 262.827 170.54 262.827 169.251Z" fill="white"/>
<path d="M247.454 172.225L246.406 167.069C246.406 167.069 245.931 165.952 244.698 165.952C243.464 165.952 239.877 165.952 239.877 165.952C239.877 165.952 246.023 167.768 247.454 172.225Z" fill="#8E8E8E"/>
<g opacity="0.7">
<g clip-path="url(#clip0_0_351)">
<circle opacity="0.2" cx="94.7117" cy="102.553" r="89.3279" fill="#F9F9FB"/>
<rect opacity="0.2" x="15" y="13.2256" width="83.0121" height="178.656" fill="#F9F9FB"/>
<path opacity="0.2" d="M173.828 103.249L15.308 194.771L15.308 11.7278L173.828 103.249Z" fill="#F9F9FB"/>
</g>
</g>
<defs>
<filter id="filter0_ddd_0_351" x="0" y="0" width="310" height="217" filterUnits="userSpaceOnUse" color-interpolation-filters="sRGB">
<feFlood flood-opacity="0" result="BackgroundImageFix"/>
<feColorMatrix in="SourceAlpha" type="matrix" values="0 0 0 0 0 0 0 0 0 0 0 0 0 0 0 0 0 0 127 0" result="hardAlpha"/>
<feOffset dy="4"/>
<feGaussianBlur stdDeviation="3"/>
<feColorMatrix type="matrix" values="0 0 0 0 0 0 0 0 0 0 0 0 0 0 0 0 0 0 0.05 0"/>
<feBlend mode="normal" in2="BackgroundImageFix" result="effect1_dropShadow_0_351"/>
<feColorMatrix in="SourceAlpha" type="matrix" values="0 0 0 0 0 0 0 0 0 0 0 0 0 0 0 0 0 0 127 0" result="hardAlpha"/>
<feOffset dy="10"/>
<feGaussianBlur stdDeviation="7.5"/>
<feColorMatrix type="matrix" values="0 0 0 0 0 0 0 0 0 0 0 0 0 0 0 0 0 0 0.1 0"/>
<feBlend mode="normal" in2="effect1_dropShadow_0_351" result="effect2_dropShadow_0_351"/>
<feColorMatrix in="SourceAlpha" type="matrix" values="0 0 0 0 0 0 0 0 0 0 0 0 0 0 0 0 0 0 127 0" result="hardAlpha"/>
<feOffset/>
<feGaussianBlur stdDeviation="7"/>
<feColorMatrix type="matrix" values="0 0 0 0 0 0 0 0 0 0 0 0 0 0 0 0 0 0 0.05 0"/>
<feBlend mode="normal" in2="effect2_dropShadow_0_351" result="effect3_dropShadow_0_351"/>
<feBlend mode="normal" in="SourceGraphic" in2="effect3_dropShadow_0_351" result="shape"/>
</filter>
<clipPath id="clip0_0_351">
<rect x="15" y="13.832" width="169" height="178" rx="16" fill="white"/>
</clipPath>
</defs>
</svg>
