<svg width="14" height="15" viewBox="0 0 14 15" fill="none" xmlns="http://www.w3.org/2000/svg">
<path fill-rule="evenodd" clip-rule="evenodd" d="M4.2 3.57143V6.42786H6.3V3.57143H7.7V6.42786H9.8V3.57143H11.2V6.42786L11.9 6.42857C13.0121 6.42857 13.9313 7.3131 13.9965 8.44583L14 8.57143V9.28571C14 10.01 13.7361 10.6714 13.3007 11.175L13.3 14.2857C13.3 14.6802 12.9866 15 12.6 15H1.4C1.0134 15 0.7 14.6802 0.7 14.2857V11.1714C0.323868 10.7341 0.0866175 10.1907 0.0195999 9.61286L0.00419998 9.43214L0 9.28571V8.57143C0 7.43663 0.866838 6.49864 1.97692 6.43214L2.1 6.42857L2.8 6.42786V3.57143H4.2ZM4.9014 11.1721L4.8636 11.2171C4.40475 11.7283 3.77918 12.0516 3.1038 12.1264L2.9428 12.1393L2.8 12.1429C2.5585 12.1429 2.324 12.1114 2.1 12.0529V13.5714H11.9V12.0529C10.9686 12.2972 9.97948 12.0376 9.2792 11.365L9.1742 11.2579L9.1 11.1743L9.0251 11.2586C8.57119 11.7449 7.96356 12.052 7.3094 12.1257L7.14 12.14L7 12.1429C6.26742 12.144 5.56395 11.8504 5.0421 11.3257L4.9371 11.2136L4.9014 11.1721H4.9014ZM11.9 7.85714H2.1C1.74521 7.85714 1.44648 8.12813 1.40491 8.48776L1.4 8.57143V9.265L1.4021 9.37C1.44583 10.1251 2.05875 10.7145 2.8 10.7143C3.49291 10.7155 4.08236 10.1991 4.186 9.5L4.1965 9.39071L4.2 9.265C4.2252 8.37357 5.4789 8.34143 5.5923 9.16929L5.5993 9.265L5.6021 9.37C5.64274 10.123 6.25004 10.7141 6.98911 10.72C7.72818 10.7258 8.34441 10.1444 8.3965 9.39214L8.4049 9.19072C8.4917 8.365 9.7083 8.365 9.7951 9.19072L9.8035 9.39214C9.85543 10.1401 10.4652 10.7198 11.2 10.7198C11.9348 10.7198 12.5446 10.1401 12.5965 9.39214L12.6 9.28571V8.57143C12.6 8.2094 12.3344 7.90457 11.982 7.86215L11.9 7.85714ZM3.5 0C4.424 0.622143 4.6641 1.49143 4.5143 2.06286C4.3643 2.63447 3.78858 2.97378 3.2284 2.82071C2.66822 2.66765 2.3357 2.08019 2.4857 1.50857C2.695 0.715714 3.5 1.07143 3.5 0ZM7 0C7.924 0.622143 8.1641 1.49143 8.0143 2.06286C7.8643 2.63447 7.28858 2.97378 6.7284 2.82071C6.16822 2.66765 5.8357 2.08019 5.9857 1.50857C6.195 0.715714 7 1.07143 7 0ZM10.5 0C11.424 0.622143 11.6641 1.49143 11.5143 2.06286C11.3643 2.63447 10.7886 2.97378 10.2284 2.82071C9.66822 2.66765 9.3357 2.08019 9.4857 1.50857C9.695 0.715714 10.5 1.07143 10.5 0Z" fill="#FEFEFE"/>
</svg>
