<svg width="22" height="9" viewBox="0 0 22 9" fill="none" xmlns="http://www.w3.org/2000/svg">
<path d="M11.0216 6.5783C8.87862 6.58332 6.76633 6.0692 4.86539 5.07991C2.96445 4.09062 1.33142 2.65559 0.105991 0.89758C0.0612812 0.83443 0.0297403 0.762925 0.0132481 0.687327C-0.00324405 0.61173 -0.00435004 0.533586 0.00999603 0.457552C0.0243421 0.381518 0.0538468 0.309149 0.0967518 0.244759C0.139657 0.180368 0.195085 0.125273 0.259732 0.0827556C0.384542 0.00752947 0.53321 -0.0176413 0.675827 0.0123083C0.818444 0.0422579 0.944429 0.125106 1.02844 0.244183C2.15275 1.84293 3.64519 3.14773 5.37977 4.04845C7.11435 4.94917 9.04017 5.41937 10.9947 5.41937C12.9492 5.41937 14.875 4.94917 16.6096 4.04845C18.3442 3.14773 19.8366 1.84293 20.9609 0.244183C21.0449 0.125106 21.1709 0.0422579 21.3135 0.0123083C21.4561 -0.0176413 21.6048 0.00752947 21.7296 0.0827556C21.7955 0.12404 21.8523 0.178219 21.8967 0.242035C21.9411 0.305852 21.9721 0.377987 21.9879 0.454103C22.0037 0.53022 22.004 0.608745 21.9886 0.684956C21.9733 0.761168 21.9427 0.833493 21.8987 0.89758C20.677 2.65025 19.0501 4.08198 17.1564 5.07101C15.2626 6.06004 13.158 6.57712 11.0216 6.5783Z" fill="white"/>
<path d="M11.0216 8.92316C10.8687 8.92316 10.722 8.86242 10.6139 8.7543C10.5058 8.64618 10.4451 8.49954 10.4451 8.34664V5.84835H11.5981V8.34664C11.5981 8.49954 11.5374 8.64618 11.4292 8.7543C11.3211 8.86242 11.1745 8.92316 11.0216 8.92316Z" fill="white"/>
<path d="M18.6548 7.61621C18.5172 7.68229 18.3589 7.69107 18.2148 7.64064C18.0707 7.5902 17.9525 7.48465 17.8861 7.34716L16.8022 5.09486L17.84 4.5952L18.9239 6.8475C18.99 6.98514 18.9987 7.14338 18.9483 7.28749C18.8979 7.4316 18.7923 7.54982 18.6548 7.61621Z" fill="white"/>
<path d="M3.3884 7.59319C3.52604 7.65927 3.68427 7.66806 3.82838 7.61762C3.97249 7.56718 4.09071 7.46163 4.1571 7.32414L5.24097 5.07184L4.20322 4.57218L3.11935 6.82448C3.05327 6.96212 3.04448 7.12036 3.09492 7.26447C3.14536 7.40858 3.2509 7.5268 3.3884 7.59319Z" fill="white"/>
</svg>
