<svg width="12" height="14" viewBox="0 0 12 14" fill="none" xmlns="http://www.w3.org/2000/svg">
<path fill-rule="evenodd" clip-rule="evenodd" d="M11.3333 14H0.666667C0.298477 14 0 13.6866 0 13.3V0.7C0 0.313401 0.298477 -1.19209e-07 0.666667 0H11.3333C11.7015 0 12 0.313401 12 0.7V13.3C12 13.6866 11.7015 14 11.3333 14ZM10.6667 12.6V1.4H1.33333V12.6H10.6667ZM2.66667 2.8H5.33333V5.6H2.66667V2.8ZM2.66667 7H9.33333V8.4H2.66667V7ZM2.66667 9.8H9.33333V11.2H2.66667V9.8ZM6.66667 3.5H9.33333V4.9H6.66667V3.5Z" fill="#FEFEFE"/>
</svg>
