<svg width="38" height="12" viewBox="0 0 38 12" fill="none" xmlns="http://www.w3.org/2000/svg">
<path d="M10.8047 0.000976556L7.95349 8.5046C7.95349 8.5046 7.2293 4.9075 7.15764 4.45582C5.53443 0.752319 3.13926 0.958611 3.13926 0.958611L5.96222 11.9443V11.9421H9.39429L14.1401 0.000976556H10.8047Z" fill="white"/>
<path d="M13.5241 11.9443H16.6413L18.5261 0.000976556H15.3699L13.5241 11.9443Z" fill="white"/>
<path d="M35.5853 0.000976556H32.3053L27.1914 11.9443H30.2879L30.9263 10.2385H34.8307L35.163 11.9443H38L35.5853 0.000976556ZM31.7906 7.95738L33.4876 3.4439L34.3758 7.95738H31.7906Z" fill="white"/>
<path d="M22.949 3.48201C22.949 2.82404 23.4897 2.33437 25.0401 2.33437C26.0477 2.33437 27.2019 3.06617 27.2019 3.06617L27.7078 0.559163C27.7078 0.559163 26.2334 5.96422e-07 24.7861 5.96422e-07C21.5082 5.96422e-07 19.8177 1.56783 19.8177 3.55259C19.8177 7.14209 24.1379 6.65024 24.1379 8.49385C24.1379 8.8098 23.8871 9.54052 22.088 9.54052C20.2835 9.54052 19.0924 8.87929 19.0924 8.87929L18.5549 11.2853C18.5549 11.2853 19.7091 11.9433 21.9392 11.9433C24.1748 11.9433 27.2757 10.2712 27.2757 7.86954C27.2757 4.98035 22.949 4.77189 22.949 3.48201Z" fill="white"/>
<path d="M7.57747 6.45599L6.52864 1.30083C6.52864 1.30083 6.05416 0.183592 4.82075 0.183592C3.58733 0.183592 -2.15375e-07 0.183592 -2.15375e-07 0.183592C-2.15375e-07 0.183592 6.14645 1.99897 7.57747 6.45599Z" fill="#8E8E8E"/>
</svg>
