<svg width="14" height="14" viewBox="0 0 14 14" fill="none" xmlns="http://www.w3.org/2000/svg">
<path fill-rule="evenodd" clip-rule="evenodd" d="M2.9645 3.1171C1.12497 5.02637 0.876406 7.96398 2.36898 10.1552C3.86156 12.3464 6.68619 13.1907 9.1364 12.1779C9.2169 11.6529 9.0405 11.1489 8.9684 10.9725C8.8074 10.5805 8.2768 9.9106 7.3913 8.9817C7.1547 8.7332 7.1701 8.5421 7.2548 7.9758L7.2639 7.9121C7.3213 7.5243 7.4179 7.2947 8.7234 7.0875C9.387 6.9825 9.5613 7.2471 9.8028 7.6146L9.884 7.735C10.1136 8.071 10.2837 8.148 10.5406 8.2642C10.6561 8.3167 10.7996 8.3832 10.9921 8.4917C11.4485 8.7528 11.4485 9.0475 11.4485 9.6929V9.7664C11.4485 10.0401 11.4219 10.2809 11.3799 10.4902C12.4687 9.12368 12.8575 7.32736 12.4312 5.63292C12.0049 3.93848 10.8123 2.54003 9.2064 1.8515C8.8193 2.1126 8.288 2.4829 8.1025 2.737C8.008 2.8665 7.8736 3.5294 7.4375 3.584C7.3241 3.598 7.1708 3.5882 7.0084 3.5777C6.573 3.5497 5.978 3.5112 5.7876 4.0285C5.6665 4.3561 5.6455 5.2465 6.0368 5.7085C6.0998 5.782 6.1117 5.9185 6.069 6.0718C6.013 6.2727 5.9003 6.3952 5.8646 6.4204C5.7974 6.3812 5.663 6.2251 5.5713 6.1194C5.3522 5.8639 5.0778 5.5454 4.7236 5.4474C4.5948 5.4117 4.4534 5.3823 4.3155 5.3529C3.9312 5.2724 3.4965 5.1807 3.395 4.9651C3.3208 4.8069 3.3215 4.5892 3.3215 4.3596C3.3215 4.0677 3.3215 3.738 3.1787 3.4181C3.12906 3.30393 3.0561 3.20141 2.9645 3.1171L2.9645 3.1171ZM7 14C3.1339 14 0 10.8661 0 7C0 3.1339 3.1339 0 7 0C10.8661 0 14 3.1339 14 7C14 10.8661 10.8661 14 7 14Z" fill="#FEFEFE"/>
</svg>
