<?xml version="1.0" standalone="no"?>
<!DOCTYPE svg PUBLIC "-//W3C//DTD SVG 20010904//EN"
 "http://www.w3.org/TR/2001/REC-SVG-20010904/DTD/svg10.dtd">
<svg version="1.0" xmlns="http://www.w3.org/2000/svg"
 width="640.000000pt" height="640.000000pt" viewBox="0 0 640.000000 640.000000"
 preserveAspectRatio="xMidYMid meet">

<g transform="translate(0.000000,640.000000) scale(0.100000,-0.100000)"
fill="#000000" stroke="none">
<path d="M0 3200 l0 -3200 3200 0 3200 0 0 3200 0 3200 -3200 0 -3200 0 0
-3200z m3105 1845 c404 -65 726 -352 865 -770 106 -318 105 -734 -2 -1050
-130 -385 -411 -659 -768 -751 -119 -31 -299 -41 -425 -25 -246 33 -467 159
-606 345 l-29 39 0 -391 0 -392 950 0 950 0 0 -395 0 -395 -1340 0 -1340 0 0
1880 0 1880 390 0 390 0 1 -177 c0 -170 1 -177 17 -153 38 58 152 166 227 215
160 106 318 152 530 154 55 0 141 -6 190 -14z m1844 -1770 c226 -54 370 -263
331 -482 -36 -211 -220 -353 -454 -353 -197 0 -355 91 -428 247 -40 86 -49
198 -23 289 67 232 313 360 574 299z"/>
<path d="M2590 4369 c-30 -5 -91 -27 -135 -48 -140 -69 -242 -194 -291 -356
-27 -86 -27 -345 -1 -430 75 -245 259 -397 497 -412 163 -10 308 47 423 165
117 121 167 261 167 461 0 141 -19 233 -64 326 -89 179 -255 288 -457 299 -46
3 -109 1 -139 -5z"/>
</g>
</svg>
