<svg width="23" height="15" viewBox="0 0 23 15" fill="none" xmlns="http://www.w3.org/2000/svg">
<path d="M11.3153 12.8193C10.4511 12.8193 9.60634 12.563 8.8878 12.0829C8.16926 11.6028 7.60922 10.9204 7.27851 10.122C6.9478 9.32356 6.86128 8.44502 7.02987 7.59744C7.19846 6.74986 7.61461 5.97131 8.22568 5.36024C8.83675 4.74917 9.6153 4.33303 10.4629 4.16443C11.3105 3.99584 12.189 4.08237 12.9874 4.41308C13.7858 4.74379 14.4682 5.30382 14.9483 6.02237C15.4284 6.74091 15.6847 7.58569 15.6847 8.44987C15.6827 9.60809 15.2217 10.7183 14.4027 11.5373C13.5837 12.3563 12.4735 12.8173 11.3153 12.8193ZM11.3153 5.22032C10.6766 5.22032 10.0522 5.40973 9.52106 5.7646C8.98997 6.11946 8.57603 6.62385 8.33159 7.21397C8.08715 7.8041 8.0232 8.45345 8.14781 9.07992C8.27242 9.7064 8.58001 10.2818 9.03167 10.7335C9.48333 11.1852 10.0588 11.4928 10.6853 11.6174C11.3117 11.742 11.9611 11.678 12.5512 11.4336C13.1413 11.1892 13.6457 10.7752 14.0006 10.2441C14.3554 9.71302 14.5449 9.08862 14.5449 8.44987C14.5449 7.59334 14.2046 6.77189 13.5989 6.16623C12.9933 5.56057 12.1718 5.22032 11.3153 5.22032Z" fill="white"/>
<path d="M11.3148 15C9.09913 15.0083 6.91745 14.455 4.9734 13.392C3.02934 12.3289 1.38629 10.7907 0.197573 8.92087L0 8.61691L0.197573 8.31295C1.38722 6.44087 3.03022 4.89941 4.97427 3.83142C6.91833 2.76344 9.10053 2.2035 11.3186 2.2035C13.5367 2.2035 15.7189 2.76344 17.663 3.83142C19.607 4.89941 21.25 6.44087 22.4397 8.31295L22.6373 8.61691L22.4397 8.92087C21.2503 10.7918 19.606 12.3307 17.6605 13.3938C15.715 14.4569 13.5318 15.0096 11.3148 15ZM1.36021 8.59411C2.46362 10.2193 3.94802 11.5498 5.68387 12.4694C7.41971 13.3889 9.35424 13.8697 11.3186 13.8697C13.283 13.8697 15.2175 13.3889 16.9534 12.4694C18.6892 11.5498 20.1736 10.2193 21.277 8.59411C20.1736 6.96891 18.6892 5.63845 16.9534 4.71887C15.2175 3.79928 13.283 3.3185 11.3186 3.3185C9.35424 3.3185 7.41971 3.79928 5.68387 4.71887C3.94802 5.63845 2.46362 6.96891 1.36021 8.59411Z" fill="white"/>
<path d="M11.3153 2.25489e-09C11.4665 2.25489e-09 11.6114 0.060045 11.7183 0.166926C11.8252 0.273807 11.8852 0.418768 11.8852 0.569921V3.03958H10.7454V0.562322C10.7474 0.41249 10.8083 0.269473 10.915 0.16423C11.0216 0.0589875 11.1655 -1.33179e-05 11.3153 2.25489e-09Z" fill="white"/>
<path d="M3.76934 1.28405C3.9054 1.21872 4.06182 1.21004 4.20428 1.2599C4.34674 1.30976 4.46361 1.41409 4.52923 1.55001L5.60068 3.7765L4.57483 4.27043L3.50338 2.04394C3.43805 1.90788 3.42937 1.75146 3.47923 1.609C3.52909 1.46654 3.63342 1.34968 3.76934 1.28405Z" fill="white"/>
<path d="M18.8607 1.30681C18.7246 1.24148 18.5682 1.2328 18.4258 1.28266C18.2833 1.33252 18.1664 1.43685 18.1008 1.57277L17.0294 3.79166L18.0552 4.28559L19.1267 2.0667C19.192 1.93064 19.2007 1.77422 19.1508 1.63176C19.101 1.4893 18.9966 1.37243 18.8607 1.30681Z" fill="white"/>
</svg>
