<svg width="77" height="24" viewBox="0 0 77 24" fill="none" xmlns="http://www.w3.org/2000/svg">
<path d="M32.9315 12.4543C33.214 11.489 33.4974 10.5237 33.7788 9.55738C34.1399 8.31612 34.4947 7.07278 34.861 5.83361C35.1248 4.94432 35.5758 4.61214 36.4852 4.61109C37.1225 4.61005 37.7598 4.60901 38.396 4.61109C39.2143 4.61318 39.7006 4.96827 39.9333 5.76072C40.5303 7.79754 41.1189 9.8375 41.7127 11.8764C41.7696 12.0743 41.8328 12.27 41.9776 12.4616C42.0748 12.1503 42.1762 11.841 42.2683 11.5276C42.8042 9.70733 43.338 7.8871 43.8718 6.06582C44.1812 5.012 44.7088 4.61214 45.7992 4.61109C46.483 4.61005 47.1669 4.60797 47.8507 4.61109C48.4269 4.61422 48.6711 4.87767 48.5304 5.44415C48.3493 6.16787 48.1083 6.87597 47.8807 7.58824C46.841 10.8528 45.7982 14.1184 44.7512 17.3819C44.4719 18.2503 43.9163 18.645 43.009 18.6481C42.5021 18.6502 41.9952 18.6502 41.4882 18.6481C40.5996 18.644 40.0161 18.2181 39.7492 17.3683C39.0219 15.0483 38.2998 12.7272 37.5735 10.4061C37.5353 10.2832 37.4897 10.1634 37.4122 9.93642C37.3387 10.1384 37.2932 10.2488 37.257 10.3613C36.5276 12.6928 35.8014 15.0254 35.0668 17.3559C34.7906 18.2347 34.2206 18.645 33.305 18.6481C32.7857 18.6502 32.2674 18.6513 31.748 18.6481C30.9131 18.6419 30.3359 18.2326 30.0783 17.4287C28.9444 13.8945 27.8178 10.3571 26.6901 6.82078C26.5743 6.45944 26.4512 6.10019 26.3498 5.73468C26.3001 5.55349 26.2712 5.36085 26.2722 5.17445C26.2743 4.80582 26.4522 4.61943 26.8143 4.6163C27.6523 4.60693 28.4902 4.59652 29.3272 4.61943C30.0969 4.64129 30.6514 5.09323 30.8769 5.85131C31.4946 7.93187 32.1049 10.0145 32.7195 12.0961C32.7557 12.218 32.796 12.3367 32.8343 12.4575" fill="#006D95"/>
<path d="M18.4924 12.8491V12.8679C17.8448 12.8679 17.1951 12.8387 16.5496 12.8762C15.9164 12.9137 15.3847 13.1844 15.1012 13.7978C14.6884 14.6943 15.2036 15.6982 16.2392 15.9054C17.8065 16.2199 19.2166 15.7221 20.5377 14.912C20.6215 14.8609 20.6712 14.6943 20.6753 14.5787C20.6909 14.1174 20.6712 13.654 20.6857 13.1917C20.6929 12.9251 20.5843 12.8397 20.3298 12.8449C19.7173 12.8564 19.1049 12.8491 18.4924 12.8491ZM21.0198 17.5215C20.7974 17.659 20.6205 17.7704 20.4415 17.8787C19.1059 18.6961 17.6431 18.9794 16.1016 18.9065C15.1074 18.8586 14.1339 18.6941 13.2183 18.2671C11.5382 17.484 10.6196 16.0574 10.6703 14.3455C10.7261 12.4201 11.7152 11.1809 13.4397 10.477C14.3698 10.0979 15.3464 9.95006 16.3458 9.94798C17.6545 9.9459 18.9632 9.93861 20.2719 9.95319C20.605 9.95735 20.7012 9.85322 20.666 9.51895C20.4912 7.88512 19.8229 7.26032 18.179 7.24991C17.5251 7.2447 16.8806 7.33634 16.2992 7.66228C16.0778 7.78619 15.8668 7.95593 15.6992 8.14857C15.305 8.59947 14.8198 8.80773 14.2332 8.80669C13.6787 8.80565 13.1242 8.80877 12.5697 8.80565C11.9179 8.80252 11.6169 8.44847 11.6655 7.78307C11.7607 6.471 12.4673 5.61712 13.627 5.0975C14.5767 4.67159 15.5864 4.49769 16.6127 4.41543C18.0393 4.30088 19.4639 4.26444 20.8678 4.61849C22.3958 5.00378 23.6579 5.7629 24.3956 7.23117C24.7918 8.01945 24.9501 8.865 24.9501 9.74388C24.9511 12.4149 24.9521 15.0859 24.949 17.7558C24.949 18.3879 24.6945 18.6441 24.0717 18.6472C23.3879 18.6514 22.703 18.6493 22.0192 18.6482C21.3188 18.6472 21.0964 18.4337 21.0529 17.7277C21.0509 17.6808 21.0395 17.6361 21.0198 17.5215Z" fill="#006D95"/>
<path d="M69.4158 17.5937C68.9864 17.5396 68.6233 17.5083 68.2654 17.4459C67.0684 17.2386 66.128 16.6076 65.3904 15.6506C64.5751 14.5937 64.0558 13.3847 63.6637 12.1226C62.9788 9.91397 62.326 7.69491 61.665 5.47897C61.5026 4.93436 61.7353 4.6178 62.2929 4.61259C63.0957 4.60634 63.8975 4.60843 64.6993 4.61155C65.3366 4.61467 65.7587 4.93436 65.949 5.5602C66.548 7.53559 67.1346 9.5141 67.7439 11.4853C67.9902 12.2799 68.3016 13.0515 68.823 13.7138C69.1023 14.0688 69.4489 14.3146 69.8968 14.4177C70.17 14.4812 70.2993 14.4114 70.3758 14.1272C71.0824 11.5166 71.8004 8.90909 72.5153 6.30058C72.5908 6.02671 72.6632 5.75076 72.7429 5.47793C72.9094 4.91458 73.3067 4.61363 73.8912 4.61155C74.6816 4.60843 75.472 4.60843 76.2624 4.61155C76.8666 4.61467 77.1107 4.92291 76.9535 5.49772C75.8217 9.66509 74.7075 13.8366 73.5343 17.9915C73.2622 18.9527 72.8474 19.8898 72.3818 20.775C71.5283 22.4005 70.1348 23.2585 68.2985 23.2398C67.1832 23.2294 66.067 23.0992 64.9538 22.9836C64.3858 22.9243 64.1551 22.6108 64.152 22.0464C64.1499 21.6309 64.1448 21.2144 64.1551 20.7989C64.1665 20.297 64.4541 19.9877 64.9559 20.0075C65.4949 20.0283 66.0349 20.0929 66.5687 20.1762C67.3425 20.296 67.9953 20.0929 68.5147 19.5035C68.9875 18.9662 69.2337 18.3206 69.4158 17.5937Z" fill="#006D95"/>
<path d="M0.0227599 11.6028C0.0227599 9.58472 -0.0196562 7.56456 0.0444854 5.54856C0.0693144 4.74361 0.246221 3.9168 0.501753 3.15039C1.03558 1.55092 2.28013 0.722023 3.8516 0.342981C5.56998 -0.0714653 7.31319 -0.050639 9.05846 0.0951463C9.50435 0.132634 9.95024 0.194072 10.3899 0.273213C10.9475 0.372138 11.1803 0.666833 11.1844 1.23019C11.1876 1.62173 11.1927 2.0143 11.1824 2.40584C11.1679 2.9692 10.8803 3.26493 10.3196 3.25556C9.92127 3.24931 9.51676 3.22745 9.1257 3.15351C8.06013 2.95045 7.008 3.02855 5.96828 3.27431C4.96995 3.50964 4.49612 4.13027 4.34818 5.31218C4.3037 5.66414 4.30577 6.02236 4.27059 6.37641C4.23749 6.69609 4.35129 6.81585 4.68338 6.81168C5.99207 6.79606 7.30181 6.80439 8.61154 6.80543C9.30779 6.80647 9.54987 7.04806 9.55297 7.74471C9.55504 8.17269 9.56021 8.59963 9.54987 9.02762C9.53745 9.59305 9.25192 9.87629 8.68706 9.87838C7.35353 9.88358 6.02104 9.88983 4.68855 9.87421C4.36474 9.87005 4.26439 9.96793 4.26646 10.2959C4.27784 12.7545 4.27266 15.212 4.27163 17.6696C4.27163 18.4141 4.03886 18.6474 3.29916 18.6484C2.52015 18.6494 1.74217 18.6494 0.96316 18.6484C0.241049 18.6474 0.00206902 18.412 0.00103454 17.6945C-1.98708e-07 15.664 0 13.6334 0 11.6028" fill="#006D95"/>
<path d="M54.6549 6.1787C55.0439 5.91629 55.3418 5.70698 55.647 5.50913C57.0261 4.61151 58.5634 4.32931 60.1731 4.34805C60.6366 4.3543 60.919 4.64379 60.9315 5.11655C60.949 5.76946 60.9501 6.42341 60.9294 7.07528C60.9149 7.57615 60.6449 7.8469 60.1442 7.85002C59.5555 7.85523 58.9627 7.84482 58.3772 7.78754C57.1999 7.67196 56.246 8.10411 55.3822 8.87573C54.8525 9.34953 54.6207 9.85978 54.6373 10.6002C54.689 12.9504 54.657 15.3017 54.6559 17.653C54.6549 18.408 54.4128 18.6485 53.6555 18.6485C52.8413 18.6496 52.0271 18.6517 51.214 18.6475C50.6491 18.6444 50.3626 18.3611 50.3626 17.7915C50.3595 13.6835 50.3595 9.5755 50.3615 5.46643C50.3626 4.89891 50.6471 4.61463 51.213 4.61255C52.0861 4.60838 52.9582 4.60734 53.8314 4.61255C54.3528 4.61671 54.6373 4.90204 54.6538 5.42686C54.6601 5.64867 54.6549 5.87151 54.6549 6.1787Z" fill="#006D95"/>
</svg>
