<svg width="48" height="48" viewBox="0 0 48 48" fill="none" xmlns="http://www.w3.org/2000/svg">
<path d="M48 24C48 37.254 37.2552 48 24.0008 48C21.4776 48 19.0461 47.6093 16.7604 46.888C13.3206 45.8015 10.2143 43.9607 7.63858 41.5593C2.93942 37.1774 0 30.9321 0 24C0 10.7445 10.7448 0 24.0008 0C26.8695 0 29.6211 0.503412 32.1713 1.42759C35.4864 2.62676 38.4619 4.53672 40.9144 6.97264C45.2905 11.3215 48 17.3444 48 24Z" fill="white"/>
<path d="M34.4567 34.2362L31.2661 32.6176C31.2661 32.6176 25.8228 42.6713 16.312 46.9566C12.9151 45.868 9.84775 44.0234 7.3042 41.6158C9.38771 41.3086 12.7667 40.223 16.3239 36.674C22.1292 30.8799 23.4618 27.6923 23.4618 27.6923L20.9732 26.0089C20.1184 25.4307 20.2831 24.1102 21.2537 23.7669L32.2025 19.8972C32.9474 19.6337 33.7429 20.1321 33.8453 20.9241L35.4717 33.5029C35.5459 34.0706 34.9612 34.4922 34.4567 34.2362Z" fill="#006D95"/>
<path d="M38.3303 20.396C38.0741 21.0987 37.1313 20.9955 37.0124 20.2496L36.316 15.8897L31.1537 17.6373C30.5819 17.83 30.0737 17.1935 30.3285 16.6048C30.9994 15.0451 32.0044 12.3898 32.7759 8.97C33.5077 5.72745 32.9755 2.87944 32.3923 1.04395C35.5148 2.27377 38.3189 4.23255 40.629 6.73073C41.0452 11.8889 39.423 17.3815 38.3303 20.396Z" fill="#006D95"/>
</svg>
