<svg width="177" height="6" viewBox="0 0 177 6" fill="none" xmlns="http://www.w3.org/2000/svg">
<path d="M28.2151 2.54794C28.2073 2.05015 28.3478 1.56132 28.6188 1.14363C28.8897 0.725944 29.2789 0.398267 29.7366 0.202376C30.1944 0.00648573 30.7002 -0.048814 31.1895 0.0435476C31.6788 0.135909 32.1296 0.371785 32.4844 0.721067C32.8393 1.07035 33.0821 1.51725 33.1821 2.00496C33.2821 2.49267 33.2347 2.99913 33.046 3.45983C32.8572 3.92052 32.5356 4.31465 32.1221 4.59204C31.7086 4.86943 31.2219 5.01754 30.7239 5.01753C30.0637 5.02261 29.4285 4.76533 28.958 4.3022C28.4875 3.83908 28.2203 3.20804 28.2151 2.54794ZM18.8116 2.54794C18.8038 2.05015 18.9443 1.56132 19.2153 1.14363C19.4863 0.725944 19.8754 0.398267 20.3332 0.202376C20.791 0.00648573 21.2967 -0.048814 21.786 0.0435476C22.2753 0.135909 22.726 0.371785 23.0808 0.721067C23.4356 1.07035 23.6786 1.51725 23.7786 2.00496C23.8786 2.49267 23.8311 2.99913 23.6423 3.45983C23.4535 3.92052 23.1321 4.31465 22.7186 4.59204C22.3051 4.86943 21.8184 5.01754 21.3204 5.01753C20.9935 5.02014 20.6691 4.95833 20.3661 4.83562C20.063 4.71292 19.7872 4.53171 19.5542 4.30238C19.3212 4.07305 19.1357 3.80005 19.0082 3.49902C18.8807 3.19798 18.8138 2.87483 18.8113 2.54794H18.8116ZM9.40382 2.54794C9.39605 2.05015 9.53655 1.56132 9.80752 1.14363C10.0785 0.725944 10.4676 0.398267 10.9254 0.202376C11.3832 0.00648573 11.8889 -0.048814 12.3782 0.0435476C12.8675 0.135909 13.3183 0.371785 13.6732 0.721067C14.028 1.07035 14.2708 1.51725 14.3708 2.00496C14.4708 2.49267 14.4235 2.99913 14.2347 3.45983C14.0459 3.92052 13.7243 4.31465 13.3108 4.59204C12.8973 4.86943 12.4106 5.01754 11.9126 5.01753C11.2524 5.02261 10.6173 4.76533 10.1468 4.3022C9.67628 3.83908 9.40904 3.20804 9.40382 2.54794ZM0.000344595 2.54794C-0.00742818 2.05015 0.133072 1.56132 0.404038 1.14363C0.675003 0.725944 1.06412 0.398267 1.5219 0.202376C1.97969 0.00648573 2.48541 -0.048814 2.97472 0.0435476C3.46402 0.135909 3.91487 0.371785 4.2697 0.721067C4.62454 1.07035 4.86734 1.51725 4.96734 2.00496C5.06733 2.49267 5.01999 2.99913 4.83122 3.45983C4.64245 3.92052 4.32085 4.31465 3.90736 4.59204C3.49387 4.86943 3.00712 5.01754 2.50917 5.01753C2.18221 5.02014 1.85787 4.95833 1.55481 4.83562C1.25176 4.71292 0.975956 4.53171 0.742947 4.30238C0.509937 4.07305 0.324416 3.80005 0.196936 3.49902C0.0694555 3.19798 0.00253859 2.87483 0 2.54794H0.000344595Z" fill="white"/>
<path d="M75.4976 2.54794C75.4899 2.05015 75.6304 1.56132 75.9013 1.14363C76.1723 0.725944 76.5614 0.398267 77.0192 0.202376C77.477 0.00648573 77.9827 -0.048814 78.472 0.0435476C78.9613 0.135909 79.4122 0.371785 79.767 0.721067C80.1218 1.07035 80.3646 1.51725 80.4646 2.00496C80.5646 2.49267 80.5173 2.99913 80.3285 3.45983C80.1398 3.92052 79.8182 4.31465 79.4047 4.59204C78.9912 4.86943 78.5044 5.01754 78.0065 5.01753C77.3462 5.02261 76.7111 4.76533 76.2406 4.3022C75.7701 3.83908 75.5029 3.20804 75.4976 2.54794ZM66.0942 2.54794C66.0864 2.05015 66.2269 1.56132 66.4979 1.14363C66.7688 0.725944 67.1579 0.398267 67.6157 0.202376C68.0735 0.00648573 68.5792 -0.048814 69.0685 0.0435476C69.5578 0.135909 70.0085 0.371785 70.3634 0.721067C70.7182 1.07035 70.9612 1.51725 71.0612 2.00496C71.1612 2.49267 71.1136 2.99913 70.9249 3.45983C70.7361 3.92052 70.4147 4.31465 70.0012 4.59204C69.5877 4.86943 69.1009 5.01754 68.603 5.01753C68.276 5.02014 67.9517 4.95833 67.6486 4.83562C67.3456 4.71292 67.0698 4.53171 66.8368 4.30238C66.6038 4.07305 66.4182 3.80005 66.2908 3.49902C66.1633 3.19798 66.0964 2.87483 66.0938 2.54794H66.0942ZM56.6864 2.54794C56.6786 2.05015 56.8191 1.56132 57.0901 1.14363C57.361 0.725944 57.7502 0.398267 58.2079 0.202376C58.6657 0.00648573 59.1714 -0.048814 59.6608 0.0435476C60.1501 0.135909 60.6009 0.371785 60.9557 0.721067C61.3106 1.07035 61.5534 1.51725 61.6534 2.00496C61.7534 2.49267 61.706 2.99913 61.5173 3.45983C61.3285 3.92052 61.0069 4.31465 60.5934 4.59204C60.1799 4.86943 59.6932 5.01754 59.1952 5.01753C58.535 5.02261 57.8998 4.76533 57.4293 4.3022C56.9588 3.83908 56.6916 3.20804 56.6864 2.54794ZM47.2829 2.54794C47.2751 2.05015 47.4156 1.56132 47.6866 1.14363C47.9576 0.725944 48.3467 0.398267 48.8045 0.202376C49.2622 0.00648573 49.768 -0.048814 50.2573 0.0435476C50.7466 0.135909 51.1974 0.371785 51.5523 0.721067C51.9071 1.07035 52.1499 1.51725 52.2499 2.00496C52.3499 2.49267 52.3025 2.99913 52.1138 3.45983C51.925 3.92052 51.6034 4.31465 51.1899 4.59204C50.7764 4.86943 50.2897 5.01754 49.7917 5.01753C49.4648 5.02014 49.1404 4.95833 48.8374 4.83562C48.5343 4.71292 48.2585 4.53171 48.0255 4.30238C47.7925 4.07305 47.607 3.80005 47.4795 3.49902C47.352 3.19798 47.2851 2.87483 47.2826 2.54794H47.2829Z" fill="white"/>
<path d="M122.78 2.54794C122.772 2.05015 122.913 1.56132 123.184 1.14363C123.455 0.725944 123.844 0.398267 124.302 0.202376C124.76 0.00648573 125.265 -0.048814 125.755 0.0435476C126.244 0.135909 126.695 0.371785 127.05 0.721067C127.404 1.07035 127.647 1.51725 127.747 2.00496C127.847 2.49267 127.8 2.99913 127.611 3.45983C127.422 3.92052 127.101 4.31465 126.687 4.59204C126.274 4.86943 125.787 5.01754 125.289 5.01753C124.629 5.02261 123.994 4.76533 123.523 4.3022C123.053 3.83908 122.785 3.20804 122.78 2.54794ZM113.377 2.54794C113.369 2.05015 113.509 1.56132 113.78 1.14363C114.051 0.725944 114.441 0.398267 114.898 0.202376C115.356 0.00648573 115.862 -0.048814 116.351 0.0435476C116.84 0.135909 117.291 0.371785 117.646 0.721067C118.001 1.07035 118.244 1.51725 118.344 2.00496C118.444 2.49267 118.396 2.99913 118.207 3.45983C118.019 3.92052 117.697 4.31465 117.284 4.59204C116.87 4.86943 116.383 5.01754 115.886 5.01753C115.559 5.02014 115.234 4.95833 114.931 4.83562C114.628 4.71292 114.352 4.53171 114.119 4.30238C113.886 4.07305 113.701 3.80005 113.573 3.49902C113.446 3.19798 113.379 2.87483 113.376 2.54794H113.377ZM103.969 2.54794C103.961 2.05015 104.102 1.56132 104.373 1.14363C104.644 0.725944 105.033 0.398267 105.49 0.202376C105.948 0.00648573 106.454 -0.048814 106.943 0.0435476C107.433 0.135909 107.883 0.371785 108.238 0.721067C108.593 1.07035 108.836 1.51725 108.936 2.00496C109.036 2.49267 108.989 2.99913 108.8 3.45983C108.611 3.92052 108.289 4.31465 107.876 4.59204C107.462 4.86943 106.976 5.01754 106.478 5.01753C105.818 5.02261 105.182 4.76533 104.712 4.3022C104.241 3.83908 103.974 3.20804 103.969 2.54794ZM94.5655 2.54794C94.5577 2.05015 94.6982 1.56132 94.9692 1.14363C95.2401 0.725944 95.6292 0.398267 96.087 0.202376C96.5448 0.00648573 97.0505 -0.048814 97.5398 0.0435476C98.0291 0.135909 98.48 0.371785 98.8348 0.721067C99.1897 1.07035 99.4325 1.51725 99.5324 2.00496C99.6324 2.49267 99.5851 2.99913 99.3963 3.45983C99.2076 3.92052 98.886 4.31465 98.4725 4.59204C98.059 4.86943 97.5722 5.01754 97.0743 5.01753C96.7473 5.02014 96.423 4.95833 96.1199 4.83562C95.8169 4.71292 95.5411 4.53171 95.3081 4.30238C95.0751 4.07305 94.8895 3.80005 94.7621 3.49902C94.6346 3.19798 94.5677 2.87483 94.5651 2.54794H94.5655Z" fill="white"/>
<path d="M171.693 2.69477C171.684 2.16829 171.833 1.6513 172.12 1.20954C172.406 0.767777 172.818 0.421217 173.302 0.214038C173.786 0.00685947 174.321 -0.0516269 174.838 0.0460571C175.356 0.143741 175.833 0.39321 176.208 0.762619C176.583 1.13203 176.84 1.60468 176.946 2.1205C177.052 2.63631 177.001 3.17196 176.802 3.6592C176.602 4.14644 176.262 4.56328 175.825 4.85666C175.387 5.15004 174.873 5.30668 174.346 5.30667C174 5.30938 173.657 5.24398 173.337 5.11419C173.016 4.98439 172.725 4.79275 172.478 4.55021C172.232 4.30767 172.036 4.019 171.901 3.70065C171.766 3.38229 171.695 3.04046 171.693 2.69477ZM161.743 2.69477C161.735 2.16829 161.884 1.6513 162.17 1.20954C162.457 0.767777 162.868 0.421217 163.352 0.214038C163.837 0.00685947 164.371 -0.0516269 164.889 0.0460571C165.406 0.143741 165.883 0.39321 166.259 0.762619C166.634 1.13203 166.891 1.60468 166.996 2.1205C167.102 2.63631 167.052 3.17196 166.852 3.6592C166.653 4.14644 166.313 4.56328 165.875 4.85666C165.438 5.15004 164.923 5.30668 164.397 5.30667C163.698 5.31204 163.027 5.03993 162.529 4.55012C162.031 4.06031 161.749 3.3929 161.743 2.69477ZM151.797 2.69477C151.789 2.16829 151.938 1.6513 152.224 1.20954C152.511 0.767777 152.923 0.421217 153.407 0.214038C153.891 0.00685947 154.426 -0.0516269 154.943 0.0460571C155.461 0.143741 155.937 0.39321 156.313 0.762619C156.688 1.13203 156.945 1.60468 157.051 2.1205C157.156 2.63631 157.106 3.17196 156.907 3.6592C156.707 4.14644 156.367 4.56328 155.929 4.85666C155.492 5.15004 154.977 5.30668 154.451 5.30667C153.753 5.31204 153.081 5.03993 152.583 4.55012C152.086 4.06031 151.803 3.3929 151.797 2.69477ZM141.848 2.69477C141.84 2.16829 141.988 1.6513 142.275 1.20954C142.561 0.767777 142.973 0.421217 143.457 0.214038C143.941 0.00685947 144.476 -0.0516269 144.994 0.0460571C145.511 0.143741 145.988 0.39321 146.363 0.762619C146.739 1.13203 146.995 1.60468 147.101 2.1205C147.207 2.63631 147.157 3.17196 146.957 3.6592C146.757 4.14644 146.417 4.56328 145.98 4.85666C145.543 5.15004 145.028 5.30668 144.501 5.30667C143.803 5.31204 143.131 5.03993 142.634 4.55012C142.136 4.06031 141.853 3.3929 141.848 2.69477Z" fill="white"/>
</svg>
