<svg width="14" height="14" viewBox="0 0 14 14" fill="none" xmlns="http://www.w3.org/2000/svg">
<path fill-rule="evenodd" clip-rule="evenodd" d="M7 14C3.1339 14 0 10.8661 0 7C0 3.1339 3.1339 0 7 0C10.8661 0 14 3.1339 14 7C14 10.8661 10.8661 14 7 14ZM7 12.6C10.0928 12.6 12.6 10.0928 12.6 7C12.6 3.90721 10.0928 1.4 7 1.4C3.90721 1.4 1.4 3.90721 1.4 7C1.4 10.0928 3.90721 12.6 7 12.6ZM3.5 7H4.9C4.9 8.1598 5.8402 9.1 7 9.1C8.1598 9.1 9.1 8.1598 9.1 7H10.5C10.5 8.933 8.933 10.5 7 10.5C5.067 10.5 3.5 8.933 3.5 7Z" fill="#FEFEFE"/>
</svg>
