<svg width="48" height="48" viewBox="0 0 48 48" fill="none" xmlns="http://www.w3.org/2000/svg">
<path d="M13.7333 25.16L23.0667 34.3467C23.3159 34.591 23.651 34.7278 24 34.7278C24.349 34.7278 24.6841 34.591 24.9333 34.3467L34.2667 25.16C34.5195 24.9125 34.6637 24.5746 34.6674 24.2208C34.6712 23.867 34.5342 23.5262 34.2867 23.2733C34.0391 23.0205 33.7013 22.8763 33.3475 22.8726C32.9937 22.8688 32.6528 23.0058 32.4 23.2533L25.3333 30.2V5.33333C25.3333 4.97971 25.1929 4.64057 24.9428 4.39052C24.6928 4.14048 24.3536 4 24 4C23.6464 4 23.3072 4.14048 23.0572 4.39052C22.8071 4.64057 22.6667 4.97971 22.6667 5.33333V30.2L15.6 23.2533C15.3472 23.0058 15.0063 22.8688 14.6525 22.8726C14.2987 22.8763 13.9609 23.0205 13.7133 23.2733C13.4658 23.5262 13.3288 23.867 13.3326 24.2208C13.3363 24.5746 13.4805 24.9125 13.7333 25.16Z" fill="black"/>
<path d="M39.9999 14.6663C43.6818 14.6663 46.6666 11.6816 46.6666 7.99967C46.6666 4.31778 43.6818 1.33301 39.9999 1.33301C36.318 1.33301 33.3333 4.31778 33.3333 7.99967C33.3333 11.6816 36.318 14.6663 39.9999 14.6663Z" fill="black"/>
</svg>
