<svg width="48" height="48" viewBox="0 0 48 48" fill="none" xmlns="http://www.w3.org/2000/svg">
<path d="M39 45H36V40.5C35.9976 38.5116 35.2067 36.6053 33.8007 35.1993C32.3947 33.7933 30.4884 33.0024 28.5 33H19.5C17.5116 33.0024 15.6053 33.7933 14.1993 35.1993C12.7933 36.6053 12.0024 38.5116 12 40.5V45H9V40.5C9.00318 37.7162 10.1104 35.0473 12.0789 33.0789C14.0473 31.1104 16.7162 30.0032 19.5 30H28.5C31.2838 30.0032 33.9527 31.1104 35.9211 33.0789C37.8896 35.0473 38.9968 37.7162 39 40.5V45Z" fill="white"/>
<path d="M7.5 9C7.10218 9 6.72064 9.15804 6.43934 9.43934C6.15804 9.72064 6 10.1022 6 10.5V24H9V10.5C9 10.1022 8.84196 9.72064 8.56066 9.43934C8.27936 9.15804 7.89782 9 7.5 9Z" fill="white"/>
<path d="M6 3V6H13.5V16.5C13.5 19.2848 14.6062 21.9555 16.5754 23.9246C18.5445 25.8938 21.2152 27 24 27C26.7848 27 29.4555 25.8938 31.4246 23.9246C33.3938 21.9555 34.5 19.2848 34.5 16.5V6H42V3H6ZM16.5 6H31.5V10.5H16.5V6ZM24 24C22.0109 24 20.1032 23.2098 18.6967 21.8033C17.2902 20.3968 16.5 18.4891 16.5 16.5V13.5H31.5V16.5C31.5 18.4891 30.7098 20.3968 29.3033 21.8033C27.8968 23.2098 25.9891 24 24 24Z" fill="white"/>
</svg>
